{
  "accessors": [
    {
      "bufferView": 2,
      "componentType": 5126,
      "count": 15989,
      "max": [
        1.0703824758529663,
        1.10863196849823,
        1.0703825950622559
      ],
      "min": [
        -1.0703825950622559,
        -0.20627941191196442,
        -1.0703825950622559
      ],
      "type": "VEC3"
    },
    {
      "bufferView": 2,
      "byteOffset": 191868,
      "componentType": 5126,
      "count": 15989,
      "max": [
        1.0,
        1.0,
        1.0
      ],
      "min": [
        -1.0,
        -1.0,
        -1.0
      ],
      "type": "VEC3"
    },
    {
      "bufferView": 1,
      "componentType": 5126,
      "count": 15989,
      "max": [
        0.9699357151985168,
        0.8645946979522705
      ],
      "min": [
        -0.006704683881253004,
        -0.2900318205356598
      ],
      "type": "VEC2"
    },
    {
      "bufferView": 0,
      "componentType": 5125,
      "count": 82032,
      "type": "SCALAR"
    },
    {
      "bufferView": 2,
      "byteOffset": 383736,
      "componentType": 5126,
      "count": 28537,
      "max": [
        1.147552490234375,
        0.7056708335876465,
        1.1467523574829102
      ],
      "min": [
        -1.146803379058838,
        -0.27941855788230896,
        -1.1485623121261597
      ],
      "type": "VEC3"
    },
    {
      "bufferView": 2,
      "byteOffset": 726180,
      "componentType": 5126,
      "count": 28537,
      "max": [
        0.9999998807907104,
        1.0,
        0.9999455213546753
      ],
      "min": [
        -0.9999998807907104,
        -1.0,
        -0.9999455213546753
      ],
      "type": "VEC3"
    },
    {
      "bufferView": 1,
      "byteOffset": 127912,
      "componentType": 5126,
      "count": 28537,
      "max": [
        0.8999394178390503,
        1.0000003576278687
      ],
      "min": [
        0.0,
        0.0
      ],
      "type": "VEC2"
    },
    {
      "bufferView": 0,
      "byteOffset": 328128,
      "componentType": 5125,
      "count": 96960,
      "type": "SCALAR"
    },
    {
      "bufferView": 2,
      "byteOffset": 1068624,
      "componentType": 5126,
      "count": 27168,
      "max": [
        0.9935952425003052,
        0.35847073793411255,
        0.9976468682289124
      ],
      "min": [
        -0.9935954809188843,
        -0.5221575498580933,
        -1.0000001192092896
      ],
      "type": "VEC3"
    },
    {
      "bufferView": 2,
      "byteOffset": 1394640,
      "componentType": 5126,
      "count": 27168,
      "max": [
        1.0,
        1.0,
        0.999815821647644
      ],
      "min": [
        -1.0,
        -1.0,
        -0.9999915361404419
      ],
      "type": "VEC3"
    },
    {
      "bufferView": 1,
      "byteOffset": 356208,
      "componentType": 5126,
      "count": 27168,
      "max": [
        0.0,
        0.0
      ],
      "min": [
        0.0,
        0.0
      ],
      "type": "VEC2"
    },
    {
      "bufferView": 0,
      "byteOffset": 715968,
      "componentType": 5125,
      "count": 162144,
      "type": "SCALAR"
    },
    {
      "bufferView": 2,
      "byteOffset": 1720656,
      "componentType": 5126,
      "count": 10361,
      "max": [
        1.129315972328186,
        1.193722128868103,
        1.3389495611190796
      ],
      "min": [
        -1.050619125366211,
        -0.12291969358921051,
        -0.9291270971298218
      ],
      "type": "VEC3"
    },
    {
      "bufferView": 2,
      "byteOffset": 1844988,
      "componentType": 5126,
      "count": 10361,
      "max": [
        0.9997920989990234,
        1.0,
        0.9986085295677185
      ],
      "min": [
        -0.9997920989990234,
        -1.0,
        -0.9989314079284668
      ],
      "type": "VEC3"
    },
    {
      "bufferView": 1,
      "byteOffset": 573552,
      "componentType": 5126,
      "count": 10361,
      "max": [
        1.0000001192092896,
        1.0000001192092896
      ],
      "min": [
        0.0,
        0.0
      ],
      "type": "VEC2"
    },
    {
      "bufferView": 0,
      "byteOffset": 1364544,
      "componentType": 5125,
      "count": 58752,
      "type": "SCALAR"
    },
    {
      "bufferView": 2,
      "byteOffset": 1969320,
      "componentType": 5126,
      "count": 6625,
      "max": [
        0.7980048656463623,
        -0.25394192337989807,
        0.7980049252510071
      ],
      "min": [
        -0.7980049252510071,
        -0.5111001133918762,
        -0.7980049252510071
      ],
      "type": "VEC3"
    },
    {
      "bufferView": 2,
      "byteOffset": 2048820,
      "componentType": 5126,
      "count": 6625,
      "max": [
        0.9604398608207703,
        -0.27845343947410583,
        0.9604398608207703
      ],
      "min": [
        -0.9604398608207703,
        -1.0,
        -0.9604398608207703
      ],
      "type": "VEC3"
    },
    {
      "bufferView": 1,
      "byteOffset": 656440,
      "componentType": 5126,
      "count": 6625,
      "max": [
        0.0,
        0.0
      ],
      "min": [
        0.0,
        0.0
      ],
      "type": "VEC2"
    },
    {
      "bufferView": 0,
      "byteOffset": 1599552,
      "componentType": 5125,
      "count": 39168,
      "type": "SCALAR"
    },
    {
      "bufferView": 2,
      "byteOffset": 2128320,
      "componentType": 5126,
      "count": 5492,
      "max": [
        0.5974794030189514,
        -0.5328080058097839,
        0.597479522228241
      ],
      "min": [
        -0.597479522228241,
        -0.5564814805984497,
        -0.597479522228241
      ],
      "type": "VEC3"
    },
    {
      "bufferView": 2,
      "byteOffset": 2194224,
      "componentType": 5126,
      "count": 5492,
      "max": [
        0.08325511962175369,
        -0.996527910232544,
        0.08325511962175369
      ],
      "min": [
        -0.08325511962175369,
        -1.0,
        -0.08325511962175369
      ],
      "type": "VEC3"
    },
    {
      "bufferView": 1,
      "byteOffset": 709440,
      "componentType": 5126,
      "count": 5492,
      "max": [
        0.6350268721580505,
        0.9173265099525452
      ],
      "min": [
        0.05725472420454025,
        0.08267363905906677
      ],
      "type": "VEC2"
    },
    {
      "bufferView": 0,
      "byteOffset": 1756224,
      "componentType": 5125,
      "count": 29952,
      "type": "SCALAR"
    },
    {
      "bufferView": 3,
      "componentType": 5126,
      "count": 1,
      "max": [
        0.0416666679084301
      ],
      "min": [
        0.0416666679084301
      ],
      "type": "SCALAR"
    },
    {
      "bufferView": 4,
      "componentType": 5126,
      "count": 1,
      "max": [
        0.0,
        1.0,
        -0.0,
        -7.549790836947068e-08
      ],
      "min": [
        0.0,
        1.0,
        -0.0,
        -7.549790836947068e-08
      ],
      "type": "VEC4"
    }
  ],
  "animations": [
    {
      "channels": [
        {
          "sampler": 0,
          "target": {
            "node": 13,
            "path": "rotation"
          }
        }
      ],
      "name": "Action",
      "samplers": [
        {
          "input": 24,
          "interpolation": "LINEAR",
          "output": 25
        }
      ]
    }
  ],
  "asset": {
    "extras": {
      "author": "Modelling in Progress (https://sketchfab.com/ModellingInProgress)",
      "license": "CC-BY-4.0 (http://creativecommons.org/licenses/by/4.0/)",
      "source": "https://sketchfab.com/3d-models/light-bulb-496d6c4c2d0b4f8794708440e39028b3",
      "title": "Light Bulb"
    },
    "generator": "Sketchfab-12.67.0",
    "version": "2.0"
  },
  "bufferViews": [
    {
      "buffer": 0,
      "byteLength": 1876032,
      "name": "floatBufferViews",
      "target": 34963
    },
    {
      "buffer": 0,
      "byteLength": 753376,
      "byteOffset": 1876032,
      "byteStride": 8,
      "name": "floatBufferViews",
      "target": 34962
    },
    {
      "buffer": 0,
      "byteLength": 2260128,
      "byteOffset": 2629408,
      "byteStride": 12,
      "name": "floatBufferViews",
      "target": 34962
    },
    {
      "buffer": 0,
      "byteLength": 4,
      "byteOffset": 4889536,
      "name": "floatBufferViews"
    },
    {
      "buffer": 0,
      "byteLength": 16,
      "byteOffset": 4889540,
      "byteStride": 16,
      "name": "floatBufferViews"
    }
  ],
  "buffers": [
    {
      "byteLength": 4889556,
      "uri": "scene.bin"
    }
  ],
  "materials": [
    {
      "doubleSided": true,
      "name": "Material.004",
      "pbrMetallicRoughness": {
        "baseColorFactor": [
          0.8,
          0.8,
          0.8,
          1.0
        ],
        "roughnessFactor": 0.295276
      }
    },
    {
      "doubleSided": true,
      "name": "Material.001",
      "pbrMetallicRoughness": {
        "baseColorFactor": [
          0.78423,
          0.78423,
          0.78423,
          1.0
        ],
        "metallicFactor": 0.0,
        "roughnessFactor": 0.8
      }
    },
    {
      "doubleSided": true,
      "emissiveFactor": [
        1.0,
        1.0,
        1.0
      ],
      "name": "Material.005"
    }
  ],
  "meshes": [
    {
      "name": "Object_0",
      "primitives": [
        {
          "attributes": {
            "NORMAL": 1,
            "POSITION": 0,
            "TEXCOORD_0": 2
          },
          "indices": 3,
          "material": 0,
          "mode": 4
        }
      ]
    },
    {
      "name": "Object_1",
      "primitives": [
        {
          "attributes": {
            "NORMAL": 5,
            "POSITION": 4,
            "TEXCOORD_0": 6
          },
          "indices": 7,
          "material": 1,
          "mode": 4
        }
      ]
    },
    {
      "name": "Object_2",
      "primitives": [
        {
          "attributes": {
            "NORMAL": 9,
            "POSITION": 8,
            "TEXCOORD_0": 10
          },
          "indices": 11,
          "material": 1,
          "mode": 4
        }
      ]
    },
    {
      "name": "Object_3",
      "primitives": [
        {
          "attributes": {
            "NORMAL": 13,
            "POSITION": 12,
            "TEXCOORD_0": 14
          },
          "indices": 15,
          "material": 2,
          "mode": 4
        }
      ]
    },
    {
      "name": "Object_4",
      "primitives": [
        {
          "attributes": {
            "NORMAL": 17,
            "POSITION": 16,
            "TEXCOORD_0": 18
          },
          "indices": 19,
          "material": 1,
          "mode": 4
        }
      ]
    },
    {
      "name": "Object_5",
      "primitives": [
        {
          "attributes": {
            "NORMAL": 21,
            "POSITION": 20,
            "TEXCOORD_0": 22
          },
          "indices": 23,
          "material": 0,
          "mode": 4
        }
      ]
    }
  ],
  "nodes": [
    {
      "children": [
        1
      ],
      "matrix": [
        1.0,
        0.0,
        0.0,
        0.0,
        0.0,
        2.220446049250313e-16,
        -1.0,
        0.0,
        0.0,
        1.0,
        2.220446049250313e-16,
        0.0,
        0.0,
        0.0,
        0.0,
        1.0
      ],
      "name": "Sketchfab_model"
    },
    {
      "children": [
        2
      ],
      "name": "root"
    },
    {
      "children": [
        3,
        13
      ],
      "matrix": [
        1.0,
        0.0,
        0.0,
        0.0,
        0.0,
        2.220446049250313e-16,
        1.0,
        0.0,
        0.0,
        -1.0,
        2.220446049250313e-16,
        0.0,
        0.0,
        0.0,
        0.0,
        1.0
      ],
      "name": "GLTF_SceneRootNode"
    },
    {
      "children": [
        4,
        5,
        7,
        11
      ],
      "matrix": [
        -0.7376006245613013,
        0.0,
        1.1137459825085226e-07,
        0.0,
        -0.0,
        1.0,
        0.0,
        0.0,
        -1.1137459825085226e-07,
        -0.0,
        -0.7376006245613013,
        0.0,
        0.0,
        0.0,
        0.0,
        1.0
      ],
      "name": "Spiral_4"
    },
    {
      "mesh": 0,
      "name": "Object_4"
    },
    {
      "children": [
        6
      ],
      "matrix": [
        1.068320393562317,
        0.0,
        0.0,
        0.0,
        0.0,
        0.543663740158081,
        0.0,
        0.0,
        0.0,
        0.0,
        1.068320393562317,
        0.0,
        -0.00041227659676223993,
        1.2599830627441406,
        0.0002257264277432114,
        1.0
      ],
      "name": "pieceWithHoles_0"
    },
    {
      "mesh": 1,
      "name": "Object_6"
    },
    {
      "children": [
        8,
        9
      ],
      "matrix": [
        1.252206802368164,
        0.0,
        0.0,
        0.0,
        0.0,
        1.2279783487319946,
        0.0,
        0.0,
        0.0,
        0.0,
        1.252206802368164,
        0.0,
        0.0,
        1.9438540935516357,
        0.0,
        1.0
      ],
      "name": "underLight_2"
    },
    {
      "mesh": 2,
      "name": "Object_8"
    },
    {
      "children": [
        10
      ],
      "matrix": [
        0.8143466711044312,
        0.0,
        0.0,
        0.0,
        0.0,
        0.9277665615081787,
        0.0,
        0.0,
        0.0,
        0.0,
        0.8143466711044312,
        0.0,
        -0.03151257336139679,
        0.18048453330993652,
        -0.170868381857872,
        1.0
      ],
      "name": "Light_1"
    },
    {
      "mesh": 3,
      "name": "Object_10"
    },
    {
      "children": [
        12
      ],
      "matrix": [
        0.8394323587417603,
        0.0,
        0.0,
        0.0,
        0.0,
        1.0,
        0.0,
        0.0,
        0.0,
        0.0,
        0.8394323587417603,
        0.0,
        0.0,
        0.05011280998587608,
        0.0,
        1.0
      ],
      "name": "underSpiral_3"
    },
    {
      "mesh": 4,
      "name": "Object_12"
    },
    {
      "children": [
        14
      ],
      "name": "conncetWithElectric_5",
      "scale": [
        0.6383845210075378,
        0.8654880523681641,
        0.6383845210075378
      ],
      "translation": [
        0.0,
        -0.00015545357018709183,
        0.0
      ]
    },
    {
      "mesh": 5,
      "name": "Object_14"
    }
  ],
  "scene": 0,
  "scenes": [
    {
      "name": "Sketchfab_Scene",
      "nodes": [
        0
      ]
    }
  ]
}
