{
  "accessors": [
    {
      "bufferView": 3,
      "componentType": 5126,
      "count": 204,
      "max": [
        2.6987144947052,
        0.5359675884246826,
        8.546998023986816
      ],
      "min": [
        -2.6987144947052,
        -1.442328929901123,
        -0.01335668470710516
      ],
      "type": "VEC3"
    },
    {
      "bufferView": 3,
      "byteOffset": 2448,
      "componentType": 5126,
      "count": 204,
      "max": [
        1.0,
        0.13654841482639313,
        1.0
      ],
      "min": [
        -1.0,
        -1.0,
        -1.0
      ],
      "type": "VEC3"
    },
    {
      "bufferView": 4,
      "componentType": 5126,
      "count": 204,
      "max": [
        1.0,
        0.9980441927909851,
        0.9957639575004578,
        1.0
      ],
      "min": [
        -0.0218926090747118,
        -0.9980782866477966,
        -0.9960911273956299,
        1.0
      ],
      "type": "VEC4"
    },
    {
      "bufferView": 2,
      "componentType": 5126,
      "count": 204,
      "max": [
        0.9086514115333557,
        0.998046875
      ],
      "min": [
        0.001953125,
        0.002025708556175232
      ],
      "type": "VEC2"
    },
    {
      "bufferView": 1,
      "componentType": 5125,
      "count": 798,
      "type": "SCALAR"
    },
    {
      "bufferView": 3,
      "byteOffset": 4896,
      "componentType": 5126,
      "count": 204,
      "max": [
        2.715040922164917,
        0.5359675884246826,
        8.546998023986816
      ],
      "min": [
        -2.6823880672454834,
        -1.442328929901123,
        -0.01335668470710516
      ],
      "type": "VEC3"
    },
    {
      "bufferView": 3,
      "byteOffset": 7344,
      "componentType": 5126,
      "count": 204,
      "max": [
        1.0,
        0.13654841482639313,
        1.0
      ],
      "min": [
        -1.0,
        -1.0,
        -1.0
      ],
      "type": "VEC3"
    },
    {
      "bufferView": 4,
      "byteOffset": 3264,
      "componentType": 5126,
      "count": 204,
      "max": [
        1.0,
        0.9980441927909851,
        0.9957639575004578,
        1.0
      ],
      "min": [
        -0.0218926090747118,
        -0.9980782866477966,
        -0.9960911273956299,
        1.0
      ],
      "type": "VEC4"
    },
    {
      "bufferView": 2,
      "byteOffset": 1632,
      "componentType": 5126,
      "count": 204,
      "max": [
        0.9086514115333557,
        0.998046875
      ],
      "min": [
        0.001953125,
        0.002025708556175232
      ],
      "type": "VEC2"
    },
    {
      "bufferView": 1,
      "byteOffset": 3192,
      "componentType": 5125,
      "count": 798,
      "type": "SCALAR"
    },
    {
      "bufferView": 5,
      "componentType": 5126,
      "count": 5,
      "max": [
        1.0,
        0.0,
        0.0,
        0.0,
        0.0,
        1.0,
        0.0,
        0.0,
        0.0,
        0.0,
        1.0,
        0.0,
        0.0,
        0.0,
        0.0,
        1.0
      ],
      "min": [
        1.0,
        0.0,
        0.0,
        0.0,
        0.0,
        1.0,
        0.0,
        0.0,
        0.0,
        0.0,
        1.0,
        0.0,
        -0.014594676904380322,
        -0.06619120389223099,
        -4.26836633682251,
        1.0
      ],
      "type": "MAT4"
    },
    {
      "bufferView": 0,
      "componentType": 5123,
      "count": 204,
      "type": "VEC4"
    },
    {
      "bufferView": 4,
      "byteOffset": 6528,
      "componentType": 5126,
      "count": 204,
      "max": [
        1.0,
        0.0,
        0.0,
        0.0
      ],
      "min": [
        1.0,
        0.0,
        0.0,
        0.0
      ],
      "type": "VEC4"
    },
    {
      "bufferView": 0,
      "byteOffset": 1632,
      "componentType": 5123,
      "count": 204,
      "type": "VEC4"
    },
    {
      "bufferView": 4,
      "byteOffset": 9792,
      "componentType": 5126,
      "count": 204,
      "max": [
        1.0,
        0.0,
        0.0,
        0.0
      ],
      "min": [
        1.0,
        0.0,
        0.0,
        0.0
      ],
      "type": "VEC4"
    },
    {
      "bufferView": 6,
      "componentType": 5126,
      "count": 60,
      "max": [
        2.0
      ],
      "min": [
        0.03333333507180214
      ],
      "type": "SCALAR"
    },
    {
      "bufferView": 7,
      "componentType": 5126,
      "count": 60,
      "max": [
        0.3420201539993286,
        0.0,
        0.0,
        1.0
      ],
      "min": [
        -0.3420201539993286,
        0.0,
        0.0,
        0.9396926164627075
      ],
      "type": "VEC4"
    },
    {
      "bufferView": 6,
      "byteOffset": 240,
      "componentType": 5126,
      "count": 60,
      "max": [
        2.0
      ],
      "min": [
        0.03333333507180214
      ],
      "type": "SCALAR"
    },
    {
      "bufferView": 7,
      "byteOffset": 960,
      "componentType": 5126,
      "count": 60,
      "max": [
        0.3420201539993286,
        0.0,
        0.0,
        1.0
      ],
      "min": [
        -0.3420201539993286,
        0.0,
        0.0,
        0.9396926164627075
      ],
      "type": "VEC4"
    }
  ],
  "animations": [
    {
      "channels": [
        {
          "sampler": 0,
          "target": {
            "node": 11,
            "path": "rotation"
          }
        },
        {
          "sampler": 1,
          "target": {
            "node": 13,
            "path": "rotation"
          }
        }
      ],
      "name": "Take 001",
      "samplers": [
        {
          "input": 15,
          "interpolation": "LINEAR",
          "output": 16
        },
        {
          "input": 17,
          "interpolation": "LINEAR",
          "output": 18
        }
      ]
    }
  ],
  "asset": {
    "extras": {
      "author": "Mark Blosser (https://sketchfab.com/mjblosser)",
      "license": "CC-BY-4.0 (http://creativecommons.org/licenses/by/4.0/)",
      "source": "https://sketchfab.com/3d-models/modern-light-switches-1bfdc602ed2542ee88dddde857649508",
      "title": "Modern Light Switches"
    },
    "generator": "Sketchfab-14.4.0",
    "version": "2.0"
  },
  "bufferViews": [
    {
      "buffer": 0,
      "byteLength": 3264,
      "byteStride": 8,
      "name": "shortBufferViews",
      "target": 34962
    },
    {
      "buffer": 0,
      "byteLength": 6384,
      "byteOffset": 3264,
      "name": "floatBufferViews",
      "target": 34963
    },
    {
      "buffer": 0,
      "byteLength": 3264,
      "byteOffset": 9648,
      "byteStride": 8,
      "name": "floatBufferViews",
      "target": 34962
    },
    {
      "buffer": 0,
      "byteLength": 9792,
      "byteOffset": 12912,
      "byteStride": 12,
      "name": "floatBufferViews",
      "target": 34962
    },
    {
      "buffer": 0,
      "byteLength": 13056,
      "byteOffset": 22704,
      "byteStride": 16,
      "name": "floatBufferViews",
      "target": 34962
    },
    {
      "buffer": 0,
      "byteLength": 320,
      "byteOffset": 35760,
      "name": "floatBufferViews"
    },
    {
      "buffer": 0,
      "byteLength": 480,
      "byteOffset": 36080,
      "name": "floatBufferViews"
    },
    {
      "buffer": 0,
      "byteLength": 1920,
      "byteOffset": 36560,
      "byteStride": 16,
      "name": "floatBufferViews"
    }
  ],
  "buffers": [
    {
      "byteLength": 38480,
      "uri": "scene.bin"
    }
  ],
  "images": [
    {
      "uri": "textures/02_-_Default_baseColor.png"
    },
    {
      "uri": "textures/02_-_Default_metallicRoughness.png"
    },
    {
      "uri": "textures/02_-_Default_normal.png"
    },
    {
      "uri": "textures/01_-_Default_baseColor.png"
    },
    {
      "uri": "textures/01_-_Default_metallicRoughness.png"
    },
    {
      "uri": "textures/01_-_Default_normal.png"
    }
  ],
  "materials": [
    {
      "doubleSided": true,
      "name": "02_-_Default",
      "normalTexture": {
        "index": 2
      },
      "occlusionTexture": {
        "index": 1
      },
      "pbrMetallicRoughness": {
        "baseColorTexture": {
          "index": 0
        },
        "metallicRoughnessTexture": {
          "index": 1
        }
      }
    },
    {
      "doubleSided": true,
      "name": "01_-_Default",
      "normalTexture": {
        "index": 5
      },
      "occlusionTexture": {
        "index": 4
      },
      "pbrMetallicRoughness": {
        "baseColorTexture": {
          "index": 3
        },
        "metallicFactor": 0.0,
        "metallicRoughnessTexture": {
          "index": 4
        }
      }
    }
  ],
  "meshes": [
    {
      "name": "wallplate metal_02 - Default_0",
      "primitives": [
        {
          "attributes": {
            "JOINTS_0": 11,
            "NORMAL": 1,
            "POSITION": 0,
            "TANGENT": 2,
            "TEXCOORD_0": 3,
            "WEIGHTS_0": 12
          },
          "indices": 4,
          "material": 0,
          "mode": 4
        }
      ]
    },
    {
      "name": "wallplate plastic001_01 - Default_0",
      "primitives": [
        {
          "attributes": {
            "JOINTS_0": 13,
            "NORMAL": 6,
            "POSITION": 5,
            "TANGENT": 7,
            "TEXCOORD_0": 8,
            "WEIGHTS_0": 14
          },
          "indices": 9,
          "material": 1,
          "mode": 4
        }
      ]
    }
  ],
  "nodes": [
    {
      "children": [
        1
      ],
      "matrix": [
        1.0,
        0.0,
        0.0,
        0.0,
        0.0,
        -5.053215392444312e-16,
        1.0,
        0.0,
        0.0,
        -1.0,
        -5.053215392444312e-16,
        0.0,
        0.0,
        0.0,
        0.0,
        1.0
      ],
      "name": "Sketchfab_model"
    },
    {
      "children": [
        2
      ],
      "matrix": [
        0.02539999969303608,
        0.0,
        0.0,
        0.0,
        0.0,
        -0.02539999969303608,
        0.0,
        0.0,
        0.0,
        0.0,
        -0.02539999969303608,
        0.0,
        0.0,
        0.0,
        0.0,
        1.0
      ],
      "name": "2572851d0f89418da7ff6d56e583ab61.fbx"
    },
    {
      "children": [
        3
      ],
      "name": "Object_2"
    },
    {
      "children": [
        4
      ],
      "name": "RootNode"
    },
    {
      "children": [
        5,
        7,
        9,
        6,
        8,
        14,
        15
      ],
      "name": "Object_4"
    },
    {
      "children": [
        10,
        12
      ],
      "name": "_rootJoint"
    },
    {
      "matrix": [
        1.0,
        0.0,
        0.0,
        0.0,
        0.0,
        1.0,
        0.0,
        0.0,
        0.0,
        0.0,
        1.0,
        0.0,
        0.0,
        -0.349255234003067,
        -0.01335668470710516,
        1.0
      ],
      "name": "Object_6"
    },
    {
      "mesh": 0,
      "name": "Object_7",
      "skin": 0
    },
    {
      "matrix": [
        1.0,
        0.0,
        0.0,
        0.0,
        0.0,
        1.0,
        0.0,
        0.0,
        0.0,
        0.0,
        1.0,
        0.0,
        0.016326338052749634,
        -0.349255234003067,
        -0.01335668470710516,
        1.0
      ],
      "name": "Object_8"
    },
    {
      "mesh": 1,
      "name": "Object_9",
      "skin": 0
    },
    {
      "children": [
        11
      ],
      "name": "root_00",
      "translation": [
        3.540126323699951,
        0.0,
        0.0
      ]
    },
    {
      "name": "switchbone_01",
      "translation": [
        0.014594793319702148,
        0.06619120389223099,
        4.26836633682251
      ]
    },
    {
      "children": [
        13
      ],
      "name": "root001_02",
      "translation": [
        -3.662454128265381,
        0.0,
        0.0
      ]
    },
    {
      "name": "switchbone001_03",
      "translation": [
        0.014594793319702148,
        0.06619120389223099,
        4.26836633682251
      ]
    },
    {
      "name": "wallplate metal",
      "translation": [
        3.540126323699951,
        -0.349255234003067,
        -0.01335668470710516
      ]
    },
    {
      "name": "wallplate plastic001",
      "translation": [
        -3.646127700805664,
        -0.349255234003067,
        -0.01335668470710516
      ]
    }
  ],
  "samplers": [
    {
      "magFilter": 9729,
      "minFilter": 9987,
      "wrapS": 10497,
      "wrapT": 10497
    }
  ],
  "scene": 0,
  "scenes": [
    {
      "name": "Sketchfab_Scene",
      "nodes": [
        0
      ]
    }
  ],
  "skins": [
    {
      "inverseBindMatrices": 10,
      "joints": [
        5,
        10,
        11,
        12,
        13
      ],
      "skeleton": 5
    }
  ],
  "textures": [
    {
      "sampler": 0,
      "source": 0
    },
    {
      "sampler": 0,
      "source": 1
    },
    {
      "sampler": 0,
      "source": 2
    },
    {
      "sampler": 0,
      "source": 3
    },
    {
      "sampler": 0,
      "source": 4
    },
    {
      "sampler": 0,
      "source": 5
    }
  ]
}
